<?xml version="1.0" encoding="UTF-8" standalone="no"?>
<!-- Created with Inkscape (http://www.inkscape.org/) -->

<svg
   width="288.61615mm"
   height="76.801819mm"
   viewBox="0 0 288.61615 76.801818"
   version="1.1"
   id="svg5"
   inkscape:version="1.1 (c68e22c387, 2021-05-23)"
   sodipodi:docname="suspiciousbyts-blue-text.svg"
   xmlns:inkscape="http://www.inkscape.org/namespaces/inkscape"
   xmlns:sodipodi="http://sodipodi.sourceforge.net/DTD/sodipodi-0.dtd"
   xmlns:xlink="http://www.w3.org/1999/xlink"
   xmlns="http://www.w3.org/2000/svg"
   xmlns:svg="http://www.w3.org/2000/svg">
  <sodipodi:namedview
     id="namedview7"
     pagecolor="#ffffff"
     bordercolor="#666666"
     borderopacity="1.0"
     inkscape:pageshadow="2"
     inkscape:pageopacity="0"
     inkscape:pagecheckerboard="true"
     inkscape:document-units="px"
     showgrid="false"
     inkscape:showpageshadow="false"
     showborder="false"
     inkscape:snap-global="false"
     inkscape:zoom="0.94867184"
     inkscape:cx="586.60959"
     inkscape:cy="192.37421"
     inkscape:window-width="1920"
     inkscape:window-height="1137"
     inkscape:window-x="-8"
     inkscape:window-y="-8"
     inkscape:window-maximized="1"
     inkscape:current-layer="layer1"
     fit-margin-top="0"
     fit-margin-left="0"
     fit-margin-right="0"
     fit-margin-bottom="0" />
  <defs
     id="defs2">
    <inkscape:path-effect
       effect="offset"
       id="path-effect33044"
       is_visible="true"
       lpeversion="1"
       linejoin_type="miter"
       unit="mm"
       offset="1.3"
       miter_limit="4"
       attempt_force_join="true"
       update_on_knot_move="true" />
    <inkscape:path-effect
       effect="offset"
       id="path-effect31638"
       is_visible="true"
       lpeversion="1"
       linejoin_type="miter"
       unit="mm"
       offset="0"
       miter_limit="8"
       attempt_force_join="true"
       update_on_knot_move="true" />
    <inkscape:path-effect
       effect="offset"
       id="path-effect13099"
       is_visible="true"
       lpeversion="1"
       linejoin_type="miter"
       unit="pt"
       offset="-12.3"
       miter_limit="4"
       attempt_force_join="false"
       update_on_knot_move="true" />
    <linearGradient
       inkscape:collect="always"
       id="linearGradient8975">
      <stop
         style="stop-color:#2a7fff;stop-opacity:1;"
         offset="0"
         id="stop8971" />
      <stop
         style="stop-color:#2a7fff;stop-opacity:0;"
         offset="1"
         id="stop8973" />
    </linearGradient>
    <inkscape:path-effect
       effect="offset"
       id="path-effect8651"
       is_visible="true"
       lpeversion="1"
       linejoin_type="miter"
       unit="mm"
       offset="-1.6"
       miter_limit="4"
       attempt_force_join="false"
       update_on_knot_move="true" />
    <inkscape:path-effect
       effect="offset"
       id="path-effect8083"
       is_visible="true"
       lpeversion="1"
       linejoin_type="miter"
       unit="px"
       offset="-3.9"
       miter_limit="4"
       attempt_force_join="true"
       update_on_knot_move="true" />
    <linearGradient
       inkscape:collect="always"
       id="linearGradient7711">
      <stop
         style="stop-color:#2a7fff;stop-opacity:1;"
         offset="0"
         id="stop7707" />
      <stop
         style="stop-color:#2a7fff;stop-opacity:0;"
         offset="1"
         id="stop7709" />
    </linearGradient>
    <inkscape:path-effect
       effect="offset"
       id="path-effect5830"
       is_visible="true"
       lpeversion="1"
       linejoin_type="miter"
       unit="px"
       offset="-8.6"
       miter_limit="4"
       attempt_force_join="true"
       update_on_knot_move="true" />
    <inkscape:path-effect
       effect="offset"
       id="path-effect5710"
       is_visible="true"
       lpeversion="1"
       linejoin_type="miter"
       unit="px"
       offset="25"
       miter_limit="4"
       attempt_force_join="false"
       update_on_knot_move="true" />
    <inkscape:path-effect
       effect="perspective-envelope"
       up_left_point="-617.83202,-504.8164"
       up_right_point="801.58202,-504.8164"
       down_left_point="-882.06978,-206.27539"
       down_right_point="1065.8198,-206.27539"
       id="path-effect4295"
       is_visible="true"
       lpeversion="1"
       deform_type="perspective"
       horizontal_mirror="false"
       vertical_mirror="true"
       overflow_perspective="false" />
    <linearGradient
       inkscape:collect="always"
       xlink:href="#linearGradient7711"
       id="linearGradient7713"
       x1="144.71896"
       y1="103.49917"
       x2="145.07109"
       y2="240.64633"
       gradientUnits="userSpaceOnUse" />
    <linearGradient
       inkscape:collect="always"
       xlink:href="#linearGradient8975"
       id="linearGradient8977"
       x1="158.56854"
       y1="-49.939587"
       x2="158.16948"
       y2="42.485676"
       gradientUnits="userSpaceOnUse" />
  </defs>
  <g
     inkscape:label="Layer 1"
     inkscape:groupmode="layer"
     id="layer1"
     transform="translate(101.92029,134.85086)">
    <g
       id="g34136"
       inkscape:export-filename="C:\Users\Sebastian\OneDrive - OneZero IT\Pictures\Saved Pictures\susp-blue-text.png"
       inkscape:export-xdpi="96"
       inkscape:export-ydpi="96">
      <g
         id="g33704">
        <g
           id="g31294"
           transform="matrix(0.63582234,0,0,0.62558717,19.526744,-113.4746)"
           style="opacity:1;fill:#ffffff"
           inkscape:path-effect="#path-effect33044">
          <path
             id="path31286"
             style="opacity:1;fill:#ffffff;fill-opacity:1;stroke:none;stroke-width:0.529167;stroke-opacity:0.6"
             d="m 67.101562,-34.169922 -0.01367,0.08594 H 30.705078 25.1875 13.615234 7.6035156 -31.314453 h -6.808594 -36.804687 -8.595704 -7.625 l -1.892578,4.013672 -1.238281,-4.013672 H -119.25 h -10.08398 -48.0625 l 5.91796,12.503906 -7.84375,10.328125 h -0.004 l -11.68164,15.392578 13.65039,24.271484 h 29.38281 l -22.125,39.478516 12.69922,20.707031 h 83.742187 l 7.3125,-21.539062 h 6.28125 l -0.148438,0.605468 4.957032,20.933594 h 37.28125 l 3.736328,-21.539062 H 9.5214844 L 11.697266,44.880859 h 4.765625 L 15.470703,88.597656 H 56.232422 L 58.566406,67.964844 57.396484,44.880859 h 8.808594 L 72.625,88.597656 h 78.43164 2.42188 77.60546 l 15.39063,-20.3125 -23.69336,-39.976562 h 24.11914 L 262.91797,4.3378906 242.94336,-21.158203 241.91602,-22.46875 232.75,-34.169922 h -52.05469 -3.09961 -12.11328 l -1.70117,4.214844 -2.08594,-4.214844 H 135.5 132.20703 90.876953 86.240234 Z"
             inkscape:original-d="m 68.861328,-32.109375 -0.01367,0.08594 H 30.705078 25.1875 13.615234 7.6035156 -31.314453 h -6.808594 -36.804687 -8.595704 -6.318359 l -3.603515,7.636719 -2.355469,-7.636719 H -119.25 h -10.08398 -44.80664 l 5.06054,10.691407 -9.2207,12.1406248 h -0.002 l -10.2461,13.5 12.39649,22.0429682 h 31.69531 l -23.25391,41.492188 11.46485,18.693359 h 81.111324 l 7.3125,-21.539062 h 10.38086 l -0.652344,2.673828 4.46875,18.865234 h 33.916016 L -15.972706,64.99805 H 7.6523438 L 9.828125,42.820312 h 8.742187 L 17.580078,86.537109 H 54.390625 L 56.5,67.900391 55.228516,42.820312 h 12.757812 l 6.419922,43.716797 h 76.65039 2.42188 76.58203 L 243.99609,68.144531 219.16406,26.248047 h 26.63477 L 260.375,4.4335938 241.32031,-19.886719 l -1.02734,-1.310547 -8.54688,-10.912109 h -51.05078 -3.09961 -10.72265 l -2.90039,7.1875 -3.55664,-7.1875 H 135.5 132.20703 90.876953 86.240234 Z" />
          <path
             id="path31288"
             style="font-size:46.4203px;line-height:1.25;font-family:FalconsFont;-inkscape-font-specification:FalconsFont;text-align:center;text-anchor:middle;opacity:1;fill:#ffffff;stroke-width:1.28807"
             d="m 67.150391,-27.554688 0.138671,0.08398 H 29.285156 24.908203 12.160156 7.7792969 -32.951172 h -3.460937 -40.353516 -3.496094 -6.693359 l -10.771484,22.8339842 h -11.664058 l 12.142573,-22.8339842 h -24.074223 -3.16406 -43.13867 l 4.25391,6.146484 -11.90235,15.6777346 h 29.63282 l -0.65626,1.0097656 h -29.74414 l -8.76953,11.546875 h 49.66602 1.14844 49.554684 0.728515 49.439453 l 2.714844,-11.1523437 -2.541015,11.1523437 h 19.755859 l 1.810547,-10.4804687 H 17.208984 L 16.701172,6.9101562 H 36.167969 36.375 84.888672 l -0.01953,-0.1074218 h 19.117189 0.5039 50.66211 0.27149 50.17187 1.01172 49.83789 L 238.07812,-16.642578 h -28.4375 l -0.41406,-0.615234 h 28.36914 l -8.0664,-10.296876 h -49.87891 -6.72461 -5.09375 l 12.66211,22.8183599 H 168.88086 L 157.58789,-27.554688 h -23.2168 -5.67187 -39.068361 -5.507812 z m 48.537109,10.337891 h 11.36133 l 4.6914,12.5273439 h -12.125 z m -263.42578,0.04687 h 26.66601 l -0.36132,0.619141 h -26.74219 z m 91.146483,0 h 27.980469 l -0.140625,0.619141 h -28.058594 z m 46.410156,0 H 0.62890625 l -0.3046875,2.634766 H -10.636719 Z m 64.212891,0.04102 h 26.091797 l 2.412109,12.5410154 H 54.976562 Z m 144.95117,11.3847654 h 28.1875 l 0.73633,1.0078125 h -28.3125 z m -277.437498,0.097656 h 28.685547 l -0.298828,1.0097656 h -28.808594 z m -63.064452,14.6679688 6.63281,9.5664066 -28.67383,51.166015 h 80.875003 l 8.324219,-24.517578 -6.310547,-7.894531 11.503906,-7.402344 4.173828,-12.289062 1.19336,1.27539 -9.046875,28.339844 h 24.416015 l -5.484375,22.488281 h 28.5 l 3.902344,-22.488281 H 2.8398438 L 5.4101562,21.037109 9.0996094,24.107422 H 23.591797 L 22.554688,69.753906 H 52.035156 L 49.720703,24.107422 h 22.71875 l -0.759765,-6.017578 2.072265,1.476562 7.371094,50.1875 h 76.949223 l -6.65235,-18.623047 h -44.8457 l -1.27539,-5.78125 h 44.05664 l -5.98633,-16.751953 h -41.75976 l -0.97266,-4.414062 h 41.15625 l -1.93359,-5.41211 1.65624,1.013672 9.62696,25.564453 h 46.67578 l 2.9707,5.689453 H 153.2832 l 7.04688,18.714844 h 79.32617 l -24.39648,-41.15625 h -44.49415 l -2.00585,-4.490234 h 43.83984 L 203.65625,9.0214844 H 127.11719 123.93945 60.990234 58.955078 -7.8867188 -9.03125 -17.662109 l -3.613282,21.4218746 h -20.3125 l 5.328125,-21.4218746 h -35.761718 -1.058594 z m 29.23828,15.1621096 h 19.503906 l -1.808594,4.414062 h -19.857422 z m -10.375,21.166015 h 21.19922 l -2.36914,5.78125 h -21.66211 z"
             inkscape:original-d="m 74.552068,-25.494292 6.855434,4.13801 5.021807,26.0983303 H 101.8581 l -6.569101,-26.5506303 -6.222144,-3.68571 z m 17.13564,0 7.099591,4.17933 6.792681,26.0570103 h 46.72243 l -11.30902,-26.4701003 -7.13193,-3.76624 z m 45.377382,0 7.8884,4.13801 11.54011,26.0983303 h 46.45028 l -16.12529,-26.5323303 -7.64017,-3.70401 h -7.84367 L 183.9962,-2.6763917 H 167.59998 L 156.30842,-25.494292 Z m 44.87987,0 8.58157,4.13801 8.41953,13.5515003 h 29.27003 l 3.7464,5.12839 H 202.1323 l 4.60905,7.41844 h 45.47173 L 237.07443,-14.582472 h -28.52976 l -3.1934,-4.73684 h 28.01237 l -4.83743,-6.17498 z m -345.63647,0.0849 2.86824,4.14083 -10.2976,13.5606003 h 29.28061 l -3.337,5.13266 h -29.84123 l -5.63762,7.42399 h 45.48963 l 11.55091,-19.3391803 h -28.54035 l 3.34893,-4.74013 h 28.02262 l 1.58699,-2.65706 -3.06339,-3.52171 z m 43.76101,0 3.64081,4.14083 -15.26301,26.1172503 h 46.467944 l 11.180519,-26.6952103 -3.692982,-3.56287 h -8.051991 l -10.770616,22.8340903 h -16.402294 l 12.14148,-22.8340903 z m 44.809818,0 4.333054,4.14083 -5.500514,13.5606003 h 29.280621 l -1.521322,5.13266 h -29.841233 l -3.011356,7.42399 h 45.489014 l 4.709691,-19.3391803 h -28.539798 l 1.672108,-4.74013 h 28.022057 l 0.640169,-2.62871 -4.302282,-3.55006 z m 44.48918,0 5.068837,4.14083 -5.953039,26.1172503 h 15.434655 l 1.812409,-10.48022 h 29.874343 l 1.006319,-16.1390603 -5.109976,-3.6388 z m 44.901032,0 5.860816,4.14083 -1.264245,26.1172503 h 15.434658 l -0.174495,-26.4677203 -5.482768,-3.79036 z m 17.287193,0 6.098178,4.18219 0.533107,26.0758903 h 44.239649 l -1.313721,-7.37686 H 53.066132 L 51.809205,-19.188612 h 26.337738 l -0.48726,-2.73608 -5.73451,-3.4847 z m 81.323537,6.13162 h 15.59806 l 6.23284,16.6490203 h -16.61049 z m -124.79713,0.0472 H 2.9390306 l -0.7772227,6.75667 H -13.08534 Z m -125.66511,30.31244 5.12362,7.38992 -27.58535,49.222168 h 75.88134 l 7.486548,-22.051336 -7.030292,-8.797254 12.817606,-8.249058 3.795856,-11.18054 -5.833279,-6.3339 z m 69.258611,0 6.855167,7.31626 -8.557963,26.806221 h 24.218018 l -5.483072,22.489607 h 24.140562 l 3.902446,-22.489607 H 0.96981052 L 3.3245261,21.194768 -8.6415781,11.081798 h -7.2773929 l -3.61203,21.42198 h -24.69409 l 5.327944,-21.42198 z m 64.9918689,0 13.1770928,10.96477 H 25.698319 l -1.034892,45.647318 h 25.204668 l -2.31473,-45.647318 h 22.547871 l -0.543523,-4.29947 -9.234452,-6.6653 z m 68.7292071,0 10.265589,7.31626 7.241082,49.295828 h 72.242472 l -5.18047,-14.502324 h -45.05106 l -2.18127,-9.902569 h 43.69498 L 141.91681,30.657458 H 99.951644 l -1.880098,-8.5353 h 40.796314 l -1.56259,-4.37437 -10.77426,-6.66591 z m 65.853983,0 11.94576,7.31626 9.37033,24.890935 h 46.49815 l 5.1229,9.8105 H 156.261 l 5.49414,14.594393 h 74.28332 L 214.08607,30.657458 h -44.65736 l -3.84899,-8.61081 h 43.40254 l -6.49908,-10.96477 z m -244.81879,11.04028 h 23.862521 l -3.499857,8.5353 h -24.546194 z m -10.37486,21.166915 h 25.557994 l -4.060494,9.902569 h -26.3512 z" />
          <path
             id="path31290"
             style="font-size:46.4203px;line-height:1.25;font-family:FalconsFont;-inkscape-font-specification:FalconsFont;text-align:center;text-anchor:middle;opacity:1;fill:#ffffff;fill-opacity:1;stroke-width:4.8683"
             d="m -621.06793,-65.839076 -29.20274,38.444883 h 110.96455 l -10.342,15.915354 h -112.70672 l -23.61464,31.107284 h 176.35332 l 45.47985,-76.136812 h -107.56891 l 6.5994,-9.330709 z m 171.031,0 -49.95322,85.467521 h 179.749 l 35.80217,-85.467521 h -55.43799 l -25.65207,54.360237 h -57.97735 l 28.90746,-54.360237 z m 174.71458,0 -15.59793,38.444883 H -180 l -4.71703,15.915354 h -112.6624 l -12.61565,31.107284 h 175.81447 l 18.54331,-76.136812 h -107.62057 l 3.29232,-9.330709 z m 173.60729,0 -1.38041,6.053151 c -5.31039,23.29811 -10.62679,46.592188 -15.93751,69.891732 l -2.17027,9.522638 h 61.963584 l 6.783958,-39.175689 H 60.612696 l 2.893701,-46.291832 H 8.5629922 l -1.9488189,16.9562 H -47.391731 l 2.930608,-16.9562 z m 175.34203,0 -4.133858,85.467521 h 61.897148 l -0.56841,-85.467521 z m 67.24163,0 1.74951,85.467521 H 313.53839 L 308.0315,-11.294291 H 202.1752 l -4.10433,-54.544785 z m 167.89371,0 16.45423,85.467521 h 61.97097 l -21.14174,-85.467521 z m 66.6437,0 22.27853,85.467521 h 180.57581 l -36.51821,-85.467521 h -55.38633 l 20.27807,54.160926 h -58.98871 l -16.98573,-54.160926 z m 177.12105,0 37.79528,85.467521 H 770.11568 L 718.16191,-65.839076 H 662.4951 l 29.95571,53.983761 h -57.91832 l -26.72243,-53.983761 z m 174.75149,0 23.67371,38.08317 h 110.71359 l 11.61173,15.900591 H 760.82923 l 19.56204,31.48376 H 956.79626 L 896.87748,-56.855317 H 789.12402 l -6.06051,-8.983759 z"
             transform="scale(0.26458333)"
             inkscape:original-d="m -617.19922,-58.054688 c -5.79036,7.625 -11.58073,15.25 -17.37109,22.875 36.54167,0 73.08333,0 109.625,0 -6.82487,10.497396 -13.64974,20.994792 -20.47461,31.492188 -37.68815,0 -75.37631,0 -113.06446,0 -3.93099,5.1764323 -7.86197,10.3528647 -11.79296,15.529297 52.08073,0 104.16145,0 156.24218,0 12.05664,-20.1875 24.11329,-40.375 36.16993,-60.5625 -36.29688,0 -72.59375,0 -108.89063,0 2.19857,-3.111328 4.39713,-6.222657 6.5957,-9.333985 -12.34635,0 -24.69271,0 -37.03906,0 z m 171.63477,0 c -13.61654,23.298828 -27.23307,46.597657 -40.84961,69.896485 53.66471,0 107.32943,0 160.99414,0 9.75781,-23.298828 19.51563,-46.597657 29.27344,-69.896485 -12.93164,0 -25.86329,0 -38.79493,0 -8.54883,18.122396 -17.09765,36.244792 -25.64648,54.367188 -25.29688,0 -50.59375,0 -75.89063,0 9.63607,-18.122396 19.27214,-36.244792 28.90821,-54.367188 -12.66471,0 -25.32943,0 -37.99414,0 z m 175.48828,0 c -3.0931,7.625 -6.1862,15.25 -9.2793,22.875 36.59635,0 73.19271,0 109.78906,0 -3.11133,10.497396 -6.22265,20.994792 -9.33398,31.492188 -37.74284,0 -75.48568,0 -113.22852,0 -2.09961,5.1764323 -4.19921,10.3528647 -6.29882,15.529297 52.70898,0 105.41797,0 158.12695,0 4.91667,-20.1875 9.83333,-40.375 14.75,-60.5625 -36.23958,0 -72.47917,0 -108.71875,0 1.09766,-3.111328 2.19531,-6.222657 3.29297,-9.333985 -13.0332,0 -26.06641,0 -39.09961,0 z m 174.574217,0 c -5.310547,23.298828 -10.621087,46.597657 -15.931637,69.896485 15.212889,0 30.425779,0 45.638668,0 2.257813,-13.0579427 4.515625,-26.115885 6.773438,-39.173828 37.440755,0 74.88151,0 112.322265,0 0.638672,-10.240886 1.277344,-20.481771 1.916016,-30.722657 -13.235026,0 -26.470052,0 -39.705078,0 -0.650391,5.652344 -1.300781,11.304688 -1.951172,16.957032 -23.3997397,0 -46.799479,0 -70.199219,0 0.977214,-5.652344 1.954427,-11.304688 2.931641,-16.957032 -13.931641,0 -27.863281,0 -41.794922,0 z m 176.558594,0 c -1.127604,23.298828 -2.255209,46.597657 -3.382813,69.896485 15.292317,0 30.584632,0 45.876952,0 -0.1543,-23.298828 -0.30859,-46.597657 -0.46289,-69.896485 -14.01042,0 -28.020833,0 -42.031249,0 z m 67.763669,0 c 0.47591,23.298828 0.95183,46.597657 1.42774,69.896485 51.33073,0 102.66145,0 153.99218,0 -0.91081,-5.1165365 -1.82161,-10.233073 -2.73242,-15.3496095 -35.51693,0 -71.03385,0 -106.55078,0 -1.37174,-18.1822915 -2.74349,-36.3645835 -4.11523,-54.5468755 -14.00716,0 -28.01433,0 -42.02149,0 z m 169.37891,0 c 4.48372,23.298828 8.96745,46.597657 13.45117,69.896485 15.19661,0 30.39323,0 45.58984,0 -5.76497,-23.298828 -11.52995,-46.597657 -17.29492,-69.896485 -13.91536,0 -27.83073,0 -41.74609,0 z m 67.28711,0 c 6.07357,23.298828 12.14713,46.597657 18.2207,69.896485 54.25065,0 108.5013,0 162.75195,0 -9.95443,-23.298828 -19.90885,-46.597657 -29.86328,-69.896485 -13.0026,0 -26.00521,0 -39.00781,0 6.75911,18.055339 13.51823,36.110677 20.27734,54.1660161 -25.3138,0 -50.6276,0 -75.9414,0 -5.66146,-18.0553391 -11.32292,-36.1106771 -16.98438,-54.1660161 -13.15104,0 -26.30208,0 -39.45312,0 z m 179.0039,0 c 10.30208,23.298828 20.60417,46.597657 30.90625,69.896485 53.6211,0 107.24219,0 160.86329,0 -14.16016,-23.298828 -28.32031,-46.597657 -42.48047,-69.896485 -12.68229,0 -25.36459,0 -38.04688,0 9.98568,17.995443 19.97135,35.990886 29.95703,53.9863286 -25.33138,0 -50.66276,0 -75.99414,0 -8.9056,-17.9954426 -17.81119,-35.9908856 -26.71679,-53.9863286 -12.82943,0 -25.65886,0 -38.48829,0 z m 176.8086,0 c 4.66211,7.503255 9.32422,15.006511 13.98633,22.509766 36.77799,0 73.55599,0 110.33398,0 7.66536,10.492188 15.33073,20.984375 22.99609,31.4765626 -37.92448,0 -75.84895,0 -113.77343,0 3.29492,5.3033855 6.58984,10.6067709 9.88476,15.9101564 52.02539,0 104.05078,0 156.07617,0 -15.9056,-20.3033853 -31.81119,-40.606771 -47.71679,-60.910156 -36.03385,0 -72.06771,0 -108.10156,0 -2.01953,-2.995443 -4.03907,-5.990886 -6.0586,-8.986329 -12.54232,0 -25.08463,0 -37.62695,0 z" />
          <path
             id="path31292"
             style="font-size:46.4203px;line-height:1.25;font-family:FalconsFont;-inkscape-font-specification:FalconsFont;text-align:center;text-anchor:middle;opacity:1;fill:#ffffff;fill-opacity:1;stroke-width:4.8683"
             d="m -512.18503,92.089075 -91.32136,162.947835 h 284.83021 l 27.96997,-82.37451 -26.86269,-33.60236 48.97146,-31.51329 5.24114,-15.457675 h -78.28494 l -1.97835,4.835138 c -2.70118,6.585847 -5.40287,13.174127 -8.10532,19.761317 h -94.60631 l 12.05465,-24.596455 z m 273.51377,0 -24.88435,77.952755 h 91.45423 l -20.72835,84.99508 h 89.53495 l 1.12204,-6.45915 13.626973,-78.53593 H 2.9379922 L 10.578248,92.089075 h -78.388287 l -5.329724,31.572345 H -168.1816 c 1.81433,-7.30076 3.62556,-14.60253 5.44046,-21.90207 l 2.40649,-9.670275 z m 336.414863,0 -3.698328,162.947835 h 93.572835 l -0.41338,-8.17913 C 184.71399,197.73463 182.225,148.60906 179.73426,99.485731 l -0.37648,-7.396656 z m 192.357287,0 1.31398,8.917325 c 7.21707,49.12338 14.43399,98.24861 21.65108,147.37205 l 0.97441,6.65846 h 271.19587 l -3.72046,-10.40846 c -4.47836,-12.53691 -8.95668,-25.07382 -13.43504,-37.61073 l -1.84547,-5.16732 H 395.89074 c -2.86896,-13.01676 -5.73831,-26.03344 -8.60727,-39.0502 H 552.29084 L 535.7997,116.68553 H 377.12599 l -5.41831,-24.596455 z m 260.47,0 26.62647,70.711125 h 175.67422 l 20.21159,38.70325 H 591.76181 l 3.96408,10.53395 c 4.76379,12.65255 9.52755,25.30512 14.29134,37.95768 l 1.90454,5.04183 H 890.69145 L 808.67865,116.68553 H 639.84008 c -2.97758,-6.66298 -5.95411,-13.32724 -8.93212,-19.990156 l -2.06691,-4.606299 z M -468.94194,162.8002 h 98.30463 c -5.3384,13.0162 -10.67292,26.03399 -16.01131,39.0502 H -488.0758 c 6.37958,-13.01594 12.75432,-26.03426 19.13386,-39.0502 z"
             transform="scale(0.26458333)"
             inkscape:original-d="m -507.62109,99.878906 -82.58985,147.369144 h 265.95313 l 24.80469,-73.05078 -29.5879,-37.01172 53.93946,-34.7168 0.8789,-2.589844 h -62.19531 c -3.36251,8.198254 -6.72538,16.395494 -10.08789,24.593754 h -112.32226 l 12.05468,-24.593754 z m 274.64257,0 -19.91015,62.375004 h 90.70117 l -20.7207,84.99414 h 73.05859 c 4.91634,-28.3317 9.83171,-56.66245 14.748048,-84.99414 H -4.1269531 L 1.9863281,99.878906 H -61.224609 l -5.322266,31.570314 H -178.14648 c 2.61647,-10.52347 5.23313,-21.04685 7.8496,-31.570314 z m 338.3379,0 -3.3418,147.369144 h 77.40625 c -2.49074,-49.12324 -4.98192,-98.24591 -7.47266,-147.369144 z m 193.76171,0 c 7.21708,49.123404 14.43527,98.245734 21.65235,147.369144 h 253.40429 c -4.47836,-12.53691 -8.95718,-25.07247 -13.43554,-37.60938 H 389.62305 c -4.01329,-18.20866 -8.02579,-36.41829 -12.03907,-54.62695 H 541.23242 L 530.31445,124.47266 H 370.85938 l -5.41407,-24.593754 z m 262.70703,0 20.75782,55.132814 h 175.00195 l 28.34766,54.2793 H 603.01953 c 4.76379,12.65255 9.52722,25.30447 14.29102,37.95703 H 877.01953 L 804.24219,124.47266 H 634.7832 c -3.66409,-8.19798 -7.3281,-16.39578 -10.99218,-24.593754 z M -473.79883,155.01172 h 114.77344 c -7.46801,18.20866 -14.93629,36.41829 -22.4043,54.62695 h -119.14453 c 8.92471,-18.20866 17.85068,-36.41829 26.77539,-54.62695 z" />
        </g>
        <g
           id="g9434"
           transform="matrix(0.63582234,0,0,0.62558717,19.526744,-113.4746)">
          <path
             id="path5329"
             style="opacity:1;fill:#002255;fill-opacity:1;stroke:none;stroke-width:0.529167;stroke-opacity:0.6"
             d="m 68.861328,-32.109375 -0.01367,0.08594 H 30.705078 25.1875 13.615234 7.6035156 -31.314453 h -6.808594 -36.804687 -8.595704 -6.318359 l -3.603515,7.636719 -2.355469,-7.636719 H -119.25 h -10.08398 -44.80664 l 5.06054,10.691407 -9.2207,12.1406248 h -0.002 l -10.2461,13.5 12.39649,22.0429682 h 31.69531 l -23.25391,41.492188 11.46485,18.693359 h 81.111324 l 7.3125,-21.539062 h 10.38086 l -0.652344,2.673828 4.46875,18.865234 h 33.916016 L -15.972706,64.99805 H 7.6523438 L 9.828125,42.820312 h 8.742187 L 17.580078,86.537109 H 54.390625 L 56.5,67.900391 55.228516,42.820312 h 12.757812 l 6.419922,43.716797 h 76.65039 2.42188 76.58203 L 243.99609,68.144531 219.16406,26.248047 h 26.63477 L 260.375,4.4335938 241.32031,-19.886719 l -1.02734,-1.310547 -8.54688,-10.912109 h -51.05078 -3.09961 -10.72265 l -2.90039,7.1875 -3.55664,-7.1875 H 135.5 132.20703 90.876953 86.240234 Z" />
          <path
             id="path4439"
             style="font-size:46.4203px;line-height:1.25;font-family:FalconsFont;-inkscape-font-specification:FalconsFont;text-align:center;text-anchor:middle;opacity:1;fill:#aaccff;stroke-width:1.28807"
             d="m 74.552068,-25.494292 6.855434,4.13801 5.021807,26.0983303 H 101.8581 l -6.569101,-26.5506303 -6.222144,-3.68571 z m 17.13564,0 7.099591,4.17933 6.792681,26.0570103 h 46.72243 l -11.30902,-26.4701003 -7.13193,-3.76624 z m 45.377382,0 7.8884,4.13801 11.54011,26.0983303 h 46.45028 l -16.12529,-26.5323303 -7.64017,-3.70401 h -7.84367 L 183.9962,-2.6763917 H 167.59998 L 156.30842,-25.494292 Z m 44.87987,0 8.58157,4.13801 8.41953,13.5515003 h 29.27003 l 3.7464,5.12839 H 202.1323 l 4.60905,7.41844 h 45.47173 L 237.07443,-14.582472 h -28.52976 l -3.1934,-4.73684 h 28.01237 l -4.83743,-6.17498 z m -345.63647,0.0849 2.86824,4.14083 -10.2976,13.5606003 h 29.28061 l -3.337,5.13266 h -29.84123 l -5.63762,7.42399 h 45.48963 l 11.55091,-19.3391803 h -28.54035 l 3.34893,-4.74013 h 28.02262 l 1.58699,-2.65706 -3.06339,-3.52171 z m 43.76101,0 3.64081,4.14083 -15.26301,26.1172503 h 46.467944 l 11.180519,-26.6952103 -3.692982,-3.56287 h -8.051991 l -10.770616,22.8340903 h -16.402294 l 12.14148,-22.8340903 z m 44.809818,0 4.333054,4.14083 -5.500514,13.5606003 h 29.280621 l -1.521322,5.13266 h -29.841233 l -3.011356,7.42399 h 45.489014 l 4.709691,-19.3391803 h -28.539798 l 1.672108,-4.74013 h 28.022057 l 0.640169,-2.62871 -4.302282,-3.55006 z m 44.48918,0 5.068837,4.14083 -5.953039,26.1172503 h 15.434655 l 1.812409,-10.48022 h 29.874343 l 1.006319,-16.1390603 -5.109976,-3.6388 z m 44.901032,0 5.860816,4.14083 -1.264245,26.1172503 h 15.434658 l -0.174495,-26.4677203 -5.482768,-3.79036 z m 17.287193,0 6.098178,4.18219 0.533107,26.0758903 h 44.239649 l -1.313721,-7.37686 H 53.066132 L 51.809205,-19.188612 h 26.337738 l -0.48726,-2.73608 -5.73451,-3.4847 z m 81.323537,6.13162 h 15.59806 l 6.23284,16.6490203 h -16.61049 z m -124.79713,0.0472 H 2.9390306 l -0.7772227,6.75667 H -13.08534 Z m -125.66511,30.31244 5.12362,7.38992 -27.58535,49.222168 h 75.88134 l 7.486548,-22.051336 -7.030292,-8.797254 12.817606,-8.249058 3.795856,-11.18054 -5.833279,-6.3339 z m 69.258611,0 6.855167,7.31626 -8.557963,26.806221 h 24.218018 l -5.483072,22.489607 h 24.140562 l 3.902446,-22.489607 H 0.96981052 L 3.3245261,21.194768 -8.6415781,11.081798 h -7.2773929 l -3.61203,21.42198 h -24.69409 l 5.327944,-21.42198 z m 64.9918689,0 13.1770928,10.96477 H 25.698319 l -1.034892,45.647318 h 25.204668 l -2.31473,-45.647318 h 22.547871 l -0.543523,-4.29947 -9.234452,-6.6653 z m 68.7292071,0 10.265589,7.31626 7.241082,49.295828 h 72.242472 l -5.18047,-14.502324 h -45.05106 l -2.18127,-9.902569 h 43.69498 L 141.91681,30.657458 H 99.951644 l -1.880098,-8.5353 h 40.796314 l -1.56259,-4.37437 -10.77426,-6.66591 z m 65.853983,0 11.94576,7.31626 9.37033,24.890935 h 46.49815 l 5.1229,9.8105 H 156.261 l 5.49414,14.594393 h 74.28332 L 214.08607,30.657458 h -44.65736 l -3.84899,-8.61081 h 43.40254 l -6.49908,-10.96477 z m -244.81879,11.04028 h 23.862521 l -3.499857,8.5353 h -24.546194 z m -10.37486,21.166915 h 25.557994 l -4.060494,9.902569 h -26.3512 z" />
          <path
             id="path8081"
             style="font-size:46.4203px;line-height:1.25;font-family:FalconsFont;-inkscape-font-specification:FalconsFont;text-align:center;text-anchor:middle;opacity:1;fill:url(#linearGradient8977);fill-opacity:1;stroke-width:4.8683"
             d="m -617.19922,-58.054688 c -5.79036,7.625 -11.58073,15.25 -17.37109,22.875 36.54167,0 73.08333,0 109.625,0 -6.82487,10.497396 -13.64974,20.994792 -20.47461,31.492188 -37.68815,0 -75.37631,0 -113.06446,0 -3.93099,5.1764323 -7.86197,10.3528647 -11.79296,15.529297 52.08073,0 104.16145,0 156.24218,0 12.05664,-20.1875 24.11329,-40.375 36.16993,-60.5625 -36.29688,0 -72.59375,0 -108.89063,0 2.19857,-3.111328 4.39713,-6.222657 6.5957,-9.333985 -12.34635,0 -24.69271,0 -37.03906,0 z m 171.63477,0 c -13.61654,23.298828 -27.23307,46.597657 -40.84961,69.896485 53.66471,0 107.32943,0 160.99414,0 9.75781,-23.298828 19.51563,-46.597657 29.27344,-69.896485 -12.93164,0 -25.86329,0 -38.79493,0 -8.54883,18.122396 -17.09765,36.244792 -25.64648,54.367188 -25.29688,0 -50.59375,0 -75.89063,0 9.63607,-18.122396 19.27214,-36.244792 28.90821,-54.367188 -12.66471,0 -25.32943,0 -37.99414,0 z m 175.48828,0 c -3.0931,7.625 -6.1862,15.25 -9.2793,22.875 36.59635,0 73.19271,0 109.78906,0 -3.11133,10.497396 -6.22265,20.994792 -9.33398,31.492188 -37.74284,0 -75.48568,0 -113.22852,0 -2.09961,5.1764323 -4.19921,10.3528647 -6.29882,15.529297 52.70898,0 105.41797,0 158.12695,0 4.91667,-20.1875 9.83333,-40.375 14.75,-60.5625 -36.23958,0 -72.47917,0 -108.71875,0 1.09766,-3.111328 2.19531,-6.222657 3.29297,-9.333985 -13.0332,0 -26.06641,0 -39.09961,0 z m 174.574217,0 c -5.310547,23.298828 -10.621087,46.597657 -15.931637,69.896485 15.212889,0 30.425779,0 45.638668,0 2.257813,-13.0579427 4.515625,-26.115885 6.773438,-39.173828 37.440755,0 74.88151,0 112.322265,0 0.638672,-10.240886 1.277344,-20.481771 1.916016,-30.722657 -13.235026,0 -26.470052,0 -39.705078,0 -0.650391,5.652344 -1.300781,11.304688 -1.951172,16.957032 -23.3997397,0 -46.799479,0 -70.199219,0 0.977214,-5.652344 1.954427,-11.304688 2.931641,-16.957032 -13.931641,0 -27.863281,0 -41.794922,0 z m 176.558594,0 c -1.127604,23.298828 -2.255209,46.597657 -3.382813,69.896485 15.292317,0 30.584632,0 45.876952,0 -0.1543,-23.298828 -0.30859,-46.597657 -0.46289,-69.896485 -14.01042,0 -28.020833,0 -42.031249,0 z m 67.763669,0 c 0.47591,23.298828 0.95183,46.597657 1.42774,69.896485 51.33073,0 102.66145,0 153.99218,0 -0.91081,-5.1165365 -1.82161,-10.233073 -2.73242,-15.3496095 -35.51693,0 -71.03385,0 -106.55078,0 -1.37174,-18.1822915 -2.74349,-36.3645835 -4.11523,-54.5468755 -14.00716,0 -28.01433,0 -42.02149,0 z m 169.37891,0 c 4.48372,23.298828 8.96745,46.597657 13.45117,69.896485 15.19661,0 30.39323,0 45.58984,0 -5.76497,-23.298828 -11.52995,-46.597657 -17.29492,-69.896485 -13.91536,0 -27.83073,0 -41.74609,0 z m 67.28711,0 c 6.07357,23.298828 12.14713,46.597657 18.2207,69.896485 54.25065,0 108.5013,0 162.75195,0 -9.95443,-23.298828 -19.90885,-46.597657 -29.86328,-69.896485 -13.0026,0 -26.00521,0 -39.00781,0 6.75911,18.055339 13.51823,36.110677 20.27734,54.1660161 -25.3138,0 -50.6276,0 -75.9414,0 -5.66146,-18.0553391 -11.32292,-36.1106771 -16.98438,-54.1660161 -13.15104,0 -26.30208,0 -39.45312,0 z m 179.0039,0 c 10.30208,23.298828 20.60417,46.597657 30.90625,69.896485 53.6211,0 107.24219,0 160.86329,0 -14.16016,-23.298828 -28.32031,-46.597657 -42.48047,-69.896485 -12.68229,0 -25.36459,0 -38.04688,0 9.98568,17.995443 19.97135,35.990886 29.95703,53.9863286 -25.33138,0 -50.66276,0 -75.99414,0 -8.9056,-17.9954426 -17.81119,-35.9908856 -26.71679,-53.9863286 -12.82943,0 -25.65886,0 -38.48829,0 z m 176.8086,0 c 4.66211,7.503255 9.32422,15.006511 13.98633,22.509766 36.77799,0 73.55599,0 110.33398,0 7.66536,10.492188 15.33073,20.984375 22.99609,31.4765626 -37.92448,0 -75.84895,0 -113.77343,0 3.29492,5.3033855 6.58984,10.6067709 9.88476,15.9101564 52.02539,0 104.05078,0 156.07617,0 -15.9056,-20.3033853 -31.81119,-40.606771 -47.71679,-60.910156 -36.03385,0 -72.06771,0 -108.10156,0 -2.01953,-2.995443 -4.03907,-5.990886 -6.0586,-8.986329 -12.54232,0 -25.08463,0 -37.62695,0 z"
             transform="scale(0.26458333)" />
          <path
             id="path5810"
             style="font-size:46.4203px;line-height:1.25;font-family:FalconsFont;-inkscape-font-specification:FalconsFont;text-align:center;text-anchor:middle;opacity:1;fill:url(#linearGradient7713);fill-opacity:1;stroke-width:4.8683"
             d="m -507.62109,99.878906 -82.58985,147.369144 h 265.95313 l 24.80469,-73.05078 -29.5879,-37.01172 53.93946,-34.7168 0.8789,-2.589844 h -62.19531 c -3.36251,8.198254 -6.72538,16.395494 -10.08789,24.593754 h -112.32226 l 12.05468,-24.593754 z m 274.64257,0 -19.91015,62.375004 h 90.70117 l -20.7207,84.99414 h 73.05859 c 4.91634,-28.3317 9.83171,-56.66245 14.748048,-84.99414 H -4.1269531 L 1.9863281,99.878906 H -61.224609 l -5.322266,31.570314 H -178.14648 c 2.61647,-10.52347 5.23313,-21.04685 7.8496,-31.570314 z m 338.3379,0 -3.3418,147.369144 h 77.40625 c -2.49074,-49.12324 -4.98192,-98.24591 -7.47266,-147.369144 z m 193.76171,0 c 7.21708,49.123404 14.43527,98.245734 21.65235,147.369144 h 253.40429 c -4.47836,-12.53691 -8.95718,-25.07247 -13.43554,-37.60938 H 389.62305 c -4.01329,-18.20866 -8.02579,-36.41829 -12.03907,-54.62695 H 541.23242 L 530.31445,124.47266 H 370.85938 l -5.41407,-24.593754 z m 262.70703,0 20.75782,55.132814 h 175.00195 l 28.34766,54.2793 H 603.01953 c 4.76379,12.65255 9.52722,25.30447 14.29102,37.95703 H 877.01953 L 804.24219,124.47266 H 634.7832 c -3.66409,-8.19798 -7.3281,-16.39578 -10.99218,-24.593754 z M -473.79883,155.01172 h 114.77344 c -7.46801,18.20866 -14.93629,36.41829 -22.4043,54.62695 h -119.14453 c 8.92471,-18.20866 17.85068,-36.41829 26.77539,-54.62695 z"
             transform="scale(0.26458333)" />
        </g>
      </g>
    </g>
  </g>
</svg>
